<?xml version="1.0" encoding="utf-8"?>
<!-- Generator: Adobe Illustrator 26.0.1, SVG Export Plug-In . SVG Version: 6.00 Build 0)  -->
<svg version="1.1" id="Layer_1" xmlns="http://www.w3.org/2000/svg" xmlns:xlink="http://www.w3.org/1999/xlink" x="0px" y="0px"
	 viewBox="0 0 300 296" style="enable-background:new 0 0 300 296;" xml:space="preserve">
<style type="text/css">
	.st0{fill:#FFFFFF;}
</style>
<g transform="translate(0.000000,296.000000) scale(0.100000,-0.100000)">
	<path class="st0" d="M1357,2933c-18-17-5-33,28-33c28,0,35,4,35,20c0,15-7,20-28,20C1376,2940,1360,2937,1357,2933z"/>
	<path class="st0" d="M1504,2924c3-9,6-18,6-20s14-4,30-4c23,0,30,4,30,20s-7,20-36,20S1499,2937,1504,2924z"/>
	<path class="st0" d="M1590,2920c0-16,7-20,30-20s30,4,30,20s-7,20-30,20S1590,2936,1590,2920z"/>
	<path class="st0" d="M1277,2923c-15-15-5-23,28-23c24,0,35,5,35,15C1340,2930,1290,2937,1277,2923z"/>
	<path class="st0" d="M1670,2915c0-10,10-15,30-15s30,5,30,15s-10,15-30,15S1670,2925,1670,2915z"/>
	<path class="st0" d="M1205,2910c-16-7-13-9,18-9c20-1,37,4,37,9C1260,2922,1233,2922,1205,2910z"/>
	<path class="st0" d="M1063,2878c-25-8-33-17-33-34c0-21,5-24,35-24c33,0,35,2,35,35c0,19-1,35-2,34C1096,2888,1080,2883,1063,2878z
		"/>
	<path class="st0" d="M1110,2855c0-33,2-35,35-35s35,2,35,35s-2,35-35,35S1110,2888,1110,2855z"/>
	<path class="st0" d="M1190,2855c0-33,2-35,35-35s35,2,35,35s-2,35-35,35S1190,2888,1190,2855z"/>
	<path class="st0" d="M1270,2856c0-34,2-36,35-36s35,1,31,33c-3,28-7,32-35,35C1271,2891,1270,2890,1270,2856z"/>
	<path class="st0" d="M1350,2855c0-32,2-35,30-35s30,3,30,35s-2,35-30,35S1350,2887,1350,2855z"/>
	<path class="st0" d="M1430,2855c0-32,2-35,30-35s30,3,30,35s-2,35-30,35S1430,2887,1430,2855z"/>
	<path class="st0" d="M1510,2853c0-30,3-33,30-33s30,3,30,33c0,31-3,34-30,34S1510,2884,1510,2853z"/>
	<path class="st0" d="M1750,2853c0-30,3-33,31-33s30,2,27,32c-3,26-7,32-30,33C1753,2886,1750,2882,1750,2853z"/>
	<path class="st0" d="M1590,2850c0-27,3-30,30-30s30,3,30,30s-3,30-30,30S1590,2877,1590,2850z"/>
	<path class="st0" d="M1670,2850c0-27,3-30,30-30s30,3,30,30s-3,30-30,30S1670,2877,1670,2850z"/>
	<path class="st0" d="M1830,2849c0-27,3-30,28-27c21,2,28,9,30,31c3,24,0,27-27,27C1833,2880,1830,2877,1830,2849z"/>
	<path class="st0" d="M1910,2849c0-27,3-30,27-27c31,4,40,34,13,48C1919,2886,1910,2882,1910,2849z"/>
	<path class="st0" d="M990,2853c-8-3-69-31-135-63C390,2566,85,2120,30,1586c-43-413,119-855,424-1160c125-125,245-210,401-286
		c157-76,165-79,165-46c0,24-4,26-40,26c-40,0-40,0-40,40c0,39-1,40-34,40c-30,0-35-4-39-27l-4-28l-2,28c-1,25-4,27-41,27
		c-27,0-40,4-40,13c0,8-17,22-37,33c-21,10-39,22-41,27c-2,4-13,7-25,7c-17,0-19,2-8,9c10,7,5,11-18,16c-17,3-31,12-31,19
		s-12,19-27,27s-62,49-105,92C215,717,61,1084,60,1462c-1,396,199,836,493,1083c37,32,67,61,67,65s19,13,41,20c33,11,38,15,23,21
		c-19,7-13,9,31,9c3,0,14,9,26,21c11,11,24,18,27,14c4-4-1-13-11-20c-18-13-18-13,0-18c13-3,14-5,3-6c-12-1-15-10-12-36
		c2-19,8-35,13-35s8-6,6-12c-1-7,4-12,11-11c7,2,12-8,12-25c1-23,2-24,11-10c11,19,39,13,39-8c0-28,19-13,23,19l4,32l3-35l2-35l7,30
		c4,21,12,30,26,30c16,0,20-6,18-27c-1-16,2-28,8-28c5,0,9,15,9,34c0,32-3,35-32,39l-33,4l33,1c30,2,32,5,32,37c0,33-2,35-35,35
		c-34,0-35-1-35-39v-39h-42h-43v44v44h78h77v35c0,26-4,35-16,35c-13,0-14-3-4-15c7-8,10-22,6-30c-4-13-10-14-26-5c-22,12-27,36-7,43
		c7,3,6,6-5,6c-12,1-18-9-21-31l-4-33l-1,33c-2,30-5,32-36,32c-30,0-35-4-39-27c-4-26-4-26-3,2c1,27,4,30,38,33c29,2,38,8,41,25
		l4,22l2-22c1-19,7-23,36-23c34,0,35,1,35,40c0,40,0,40,40,40c33,0,40,3,40,20C1020,2861,1016,2862,990,2853z M840,2710
		c0-5-9-10-21-10c-11,0-17,5-14,10c3,6,13,10,21,10S840,2716,840,2710z M918,171c3-8-1-12-9-9c-7,2-15,10-17,17c-3,8,1,12,9,9
		C908,186,916,178,918,171z"/>
	<path class="st0" d="M1990,2842c0-11,9-17,25-18c31-2,28,16-3,27C1995,2858,1990,2856,1990,2842z"/>
	<path class="st0" d="M950,2775c0-33,2-35,35-35s35,2,35,35s-2,35-35,35S950,2808,950,2775z"/>
	<path class="st0" d="M1030,2775c0-33,2-35,35-35s35,2,35,35s-2,35-35,35S1030,2808,1030,2775z"/>
	<path class="st0" d="M1110,2775c0-33,2-35,35-35s35,2,35,35s-2,35-35,35S1110,2808,1110,2775z"/>
	<path class="st0" d="M1190,2775c0-33,2-35,35-35s35,2,35,35s-2,35-35,35S1190,2808,1190,2775z"/>
	<path class="st0" d="M1350,2775c0-32,2-35,30-35s30,3,30,35s-2,35-30,35S1350,2807,1350,2775z"/>
	<path class="st0" d="M1430,2775c0-32,2-35,30-35s30,3,30,35s-2,35-30,35S1430,2807,1430,2775z"/>
	<path class="st0" d="M1510,2775c0-32,2-35,30-35s30,3,30,35s-2,35-30,35S1510,2807,1510,2775z"/>
	<path class="st0" d="M1670,2773c0-30,3-33,30-33s30,3,30,33c0,31-3,34-30,34S1670,2804,1670,2773z"/>
	<path class="st0" d="M1830,2771c0-26,3-30,28-28c21,2,28,8,30,30c3,24,0,27-27,27C1833,2800,1830,2797,1830,2771z"/>
	<path class="st0" d="M1990,2775c0-20,5-25,25-25s25,5,25,25s-5,25-25,25S1990,2795,1990,2775z"/>
	<path class="st0" d="M2150,2770c0-15,7-20,25-20c29,0,32,8,8,26C2158,2795,2150,2793,2150,2770z"/>
	<path class="st0" d="M950,2695c0-33,2-35,35-35s35,2,35,35s-2,35-35,35S950,2728,950,2695z M1000,2696c0-8-5-18-11-22
		c-14-8-33,11-25,25C974,2715,1000,2712,1000,2696z"/>
	<path class="st0" d="M1030,2695c0-33,2-35,35-35s35,2,35,35s-2,35-35,35S1030,2728,1030,2695z"/>
	<path class="st0" d="M1110,2695c0-33,2-35,35-35s35,2,35,35s-2,35-35,35S1110,2728,1110,2695z"/>
	<path class="st0" d="M1190,2695c0-33,2-35,35-35s35,2,35,35s-2,35-35,35S1190,2728,1190,2695z"/>
	<path class="st0" d="M1270,2695c0-33,2-35,33-35s33,2,34,35s-1,35-33,35S1270,2728,1270,2695z"/>
	<path class="st0" d="M1350,2695c0-32,2-35,30-35s30,3,30,35s-2,35-30,35S1350,2727,1350,2695z"/>
	<path class="st0" d="M1430,2695c0-32,2-35,30-35s30,3,30,35s-2,35-30,35S1430,2727,1430,2695z"/>
	<path class="st0" d="M1510,2695c0-32,2-35,30-35s30,3,30,35s-2,35-30,35S1510,2727,1510,2695z"/>
	<path class="st0" d="M1590,2695c0-32,2-35,30-35s30,3,30,35s-2,35-30,35S1590,2727,1590,2695z"/>
	<path class="st0" d="M1670,2697c0-31,3-34,30-35c28-1,30,2,30,34c0,31-2,34-30,34C1673,2730,1670,2727,1670,2697z"/>
	<path class="st0" d="M1750,2695c0-32,2-35,30-35s30,3,30,35s-2,35-30,35S1750,2727,1750,2695z"/>
	<path class="st0" d="M1910,2698c0-24,4-28,28-28s27,4,26,27c0,21-6,27-27,27C1914,2725,1910,2722,1910,2698z"/>
	<path class="st0" d="M1830,2695c0-21,5-25,30-25s30,4,30,25s-5,25-30,25S1830,2716,1830,2695z"/>
	<path class="st0" d="M1990,2695c0-20,5-25,25-25s25,5,25,25s-5,25-25,25S1990,2715,1990,2695z"/>
	<path class="st0" d="M2070,2695c0-20,5-25,25-25s25,5,25,25s-5,25-25,25S2070,2715,2070,2695z"/>
	<path class="st0" d="M2150,2695c0-20,5-25,25-25s25,5,25,25s-5,25-25,25S2150,2715,2150,2695z"/>
	<path class="st0" d="M2230,2695c0-20,5-25,25-25s25,5,25,25s-5,25-25,25S2230,2715,2230,2695z"/>
	<path class="st0" d="M950,2615c0-33,2-35,35-35s35,2,35,35s-2,35-35,35S950,2648,950,2615z M993,2609c-17-17-37-1-22,17
		c8,10,15,12,23,4C1001,2623,1001,2617,993,2609z"/>
	<path class="st0" d="M1030,2615c0-33,2-35,35-35s35,2,35,35s-2,35-35,35S1030,2648,1030,2615z"/>
	<path class="st0" d="M1190,2615c0-33,2-35,35-35s35,2,35,35s-2,35-35,35S1190,2648,1190,2615z"/>
	<path class="st0" d="M1270,2614c0-34,1-35,31-32c28,3,32,7,34,36c3,30,1,32-31,32S1270,2648,1270,2614z"/>
	<path class="st0" d="M1350,2615c0-33,2-35,35-35s35,2,35,35s-2,35-35,35S1350,2648,1350,2615z"/>
	<path class="st0" d="M1510,2615c0-32,2-35,30-35s30,3,30,35s-2,35-30,35S1510,2647,1510,2615z"/>
	<path class="st0" d="M1590,2618c0-30,3-33,30-34c28-1,30,2,30,32c0,31-3,34-30,34S1590,2647,1590,2618z"/>
	<path class="st0" d="M1670,2621c0-24,5-29,30-33c28-4,30-3,30,29c0,30-3,33-30,33C1674,2650,1670,2647,1670,2621z"/>
	<path class="st0" d="M1830,2619c0-26,3-29,31-29c27,0,30,3,27,27c-2,22-9,28-30,30C1833,2649,1830,2645,1830,2619z"/>
	<path class="st0" d="M1990,2615c0-20,5-25,25-25s25,5,25,25s-5,25-25,25S1990,2635,1990,2615z"/>
	<path class="st0" d="M2150,2615c0-20,5-25,25-25s25,5,25,25s-5,25-25,25S2150,2635,2150,2615z"/>
	<path class="st0" d="M2310,2615c0-18,5-25,20-25s20,7,20,25s-5,25-20,25S2310,2633,2310,2615z"/>
	<path class="st0" d="M950,2535c0-33,2-35,35-35s35,2,35,35s-2,35-35,35S950,2568,950,2535z M998,2538c-6-18-28-21-28-4
		c0,9,7,16,16,16S1000,2545,998,2538z"/>
	<path class="st0" d="M1030,2535c0-33,2-35,35-35s35,2,35,35s-2,35-35,35S1030,2568,1030,2535z"/>
	<path class="st0" d="M1110,2535c0-33,2-35,35-35s35,2,35,35s-2,35-35,35S1110,2568,1110,2535z"/>
	<path class="st0" d="M1190,2536c0-32,2-34,35-34s35,2,35,34s-2,34-35,34S1190,2568,1190,2536z"/>
	<path class="st0" d="M1270,2536c0-31,2-34,31-32c28,1,32,5,34,34c3,30,1,32-31,32S1270,2568,1270,2536z"/>
	<path class="st0" d="M1350,2538c0-30,3-33,30-34c28-1,30,2,30,32c0,31-3,34-30,34S1350,2567,1350,2538z"/>
	<path class="st0" d="M1430,2535c0-32,2-35,30-35s30,3,30,35s-2,35-30,35S1430,2567,1430,2535z"/>
	<path class="st0" d="M1510,2538c0-30,3-33,30-33s30,3,30,33c0,29-3,32-30,32S1510,2567,1510,2538z"/>
	<path class="st0" d="M1590,2535c0-32,2-35,30-35s30,3,30,35s-2,35-30,35S1590,2567,1590,2535z"/>
	<path class="st0" d="M1670,2540c0-27,3-30,30-30s30,3,30,30s-3,30-30,30S1670,2567,1670,2540z"/>
	<path class="st0" d="M1750,2540c0-27,3-30,30-30s30,3,30,30s-3,30-30,30S1750,2567,1750,2540z"/>
	<path class="st0" d="M1830,2540c0-27,3-30,30-30s30,3,30,30s-3,30-30,30S1830,2567,1830,2540z"/>
	<path class="st0" d="M1910,2541c0-27,3-31,28-31c24,0,28,4,27,28c-1,21-7,28-28,30C1913,2571,1910,2568,1910,2541z"/>
	<path class="st0" d="M1990,2535c0-20,5-25,25-25s25,5,25,25s-5,25-25,25S1990,2555,1990,2535z"/>
	<path class="st0" d="M2070,2535c0-20,5-25,25-25s25,5,25,25s-5,25-25,25S2070,2555,2070,2535z"/>
	<path class="st0" d="M2230,2535c0-20,5-25,25-25s25,5,25,25s-5,25-25,25S2230,2555,2230,2535z"/>
	<path class="st0" d="M2310,2535c0-18,5-25,20-25s20,7,20,25s-5,25-20,25S2310,2553,2310,2535z"/>
	<path class="st0" d="M2390,2541c0-10,9-21,20-24c16-4,20,0,20,19c0,17-6,24-20,24C2397,2560,2390,2553,2390,2541z"/>
	<path class="st0" d="M839,2481c8-5,12-19,9-35c-3-14-1-26,3-26c5,0,9,16,9,35c0,27-4,35-17,35C829,2490,828,2488,839,2481z"/>
	<path class="st0" d="M870,2460c0-16,4-30,9-30c4,0,6,11,3,25c-3,20,0,25,16,25c27,0,37-17,22-35c-10-12-9-15,4-15c11,0,16,9,16,30
		c0,28-3,30-35,30S870,2488,870,2460z"/>
	<path class="st0" d="M950,2460c0-23,5-30,19-30c11,0,26-3,35-6c13-5,16,1,16,30c0,34-1,36-35,36C953,2490,950,2488,950,2460z
		 M994,2449c-8-14-24-10-24,6c0,9,6,12,15,9C993,2460,997,2454,994,2449z"/>
	<path class="st0" d="M1030,2461c0-25,4-29,35-33c34-4,35-3,35,29c0,31-2,33-35,33C1033,2490,1030,2487,1030,2461z"/>
	<path class="st0" d="M1110,2458c0-31,2-33,35-33s35,2,35,33c0,30-2,32-35,32S1110,2488,1110,2458z"/>
	<path class="st0" d="M1190,2457c0-32,1-33,35-29c31,4,35,8,35,33c0,26-3,29-35,29C1192,2490,1190,2488,1190,2457z"/>
	<path class="st0" d="M1270,2460c0-25,4-30,25-30c36,0,38,2,41,33c1,25-1,27-32,27S1270,2487,1270,2460z"/>
	<path class="st0" d="M1350,2461c0-24,5-29,30-33c36-5,40-3,40,34c0,25-3,28-35,28S1350,2487,1350,2461z"/>
	<path class="st0" d="M1510,2458c0-30,3-33,30-33s30,3,30,33c0,29-3,32-30,32S1510,2487,1510,2458z"/>
	<path class="st0" d="M1670,2460c0-27,3-30,30-30s30,3,30,30s-3,30-30,30S1670,2487,1670,2460z"/>
	<path class="st0" d="M1830,2460c0-27,3-30,30-30s30,3,30,30s-3,30-30,30S1830,2487,1830,2460z"/>
	<path class="st0" d="M1990,2460c0-25,4-30,25-30s25,5,25,30s-4,30-25,30S1990,2485,1990,2460z"/>
	<path class="st0" d="M2150,2455c0-20,5-25,25-25s25,5,25,25s-5,25-25,25S2150,2475,2150,2455z"/>
	<path class="st0" d="M2310,2454c0-20,4-25,22-22c32,5,33,48,1,48C2315,2480,2310,2475,2310,2454z"/>
	<path class="st0" d="M2470,2460c0-13,7-20,20-20s20,7,20,20s-7,20-20,20S2470,2473,2470,2460z"/>
	<path class="st0" d="M848,2380c-3-16-1-30,4-30c4,0,8,14,8,30c0,17-2,30-4,30S850,2397,848,2380z"/>
	<path class="st0" d="M870,2380c0-16,4-30,9-30c4,0,6,11,3,25c-3,20,0,25,16,25c27,0,37-17,22-35c-10-12-9-15,4-15c11,0,16,9,16,30
		c0,28-3,30-35,30S870,2408,870,2380z"/>
	<path class="st0" d="M950,2380c0-28,3-30,35-30s35,2,35,30s-3,30-35,30S950,2408,950,2380z M995,2380c3-5-3-10-15-10s-18,5-15,10
		c3,6,10,10,15,10S992,2386,995,2380z"/>
	<path class="st0" d="M1030,2380c0-27,3-30,30-30c17,0,30-4,30-10c0-5-13-10-30-10c-28,0-30-2-30-41c0-22-4-38-9-35
		c-20,13-70-6-74-28c-4-20-4-20-6,2c-1,18-7,22-36,22c-32,0-35-2-35-29c0-23,5-31,23-34c22-4,22-4,0-6c-14-1-23-9-26-23l-4-23l-2,23
		c-1,23-21,32-21,9c0-18-34-49-43-40c-4,3-7,1-7-5s10-13,23-15l22-4l-22-2c-14,0-23-8-24-18c0-15-2-15-9,2c-6,14-9,16-9,4
		c-1-8-10-25-21-36c-14-15-16-23-7-26c7-3,5-6-4-6c-9-1-20-12-23-26c-4-14-11-23-16-20c-9,6-14-8-11-27c0-5-3-8-8-8
		c-9,0-37-60-33-72c1-5-2-8-8-8c-5,0-10-11-10-25s-4-25-10-25c-9,0-32-69-33-97c0-7-3-13-7-13c-12,0-31-213-26-290
		c6-84,10-111,32-190c20-75,22-83,23-98c1-7,6-10,11-7s10-3,10-14c0-12,5-21,11-21c5,0,8-4,5-9c-9-14,18-71,34-71c10,0,11-3,3-8
		s-8-11,1-24c7-10,15-15,19-12c3,3,8-4,12-15c3-11,14-22,23-24c14-4,13-5-3-6c-18-1-18-2,3-17c12-8,22-22,22-31c0-8,6-13,13-10
		c6,2,18-2,25-9c7-8,8-14,2-14c-5,0-10-15-10-32c0-23-3-29-9-19c-6,9-11,10-15,2c-4-6-4-16-1-21c3-6-4-10-17-11c-13,0-17-3-10-6
		c6-2,12-18,12-34s5-29,10-29c6,0,9-6,8-12c-2-7,3-12,10-10c6,1,12-2,12-8c0-5,9-10,20-10s23-7,26-15c11-27,24-16,24,20
		c0,33-2,35-34,35s-34,2-38,40l-4,40h43h43v-75c0-41,4-75,9-75s7,9,4,20c-6,23,22,39,39,22c8-8,8-15-2-27s-10-15,4-15
		c11,0,16,9,16,30c0,27-3,30-31,30c-17,0-28,4-24,10c3,6,17,10,30,10c14,0,25,7,28,18c4,13,5,13,6,1c0-8,13-20,29-26l27-11l-27-1
		c-24-1-28-5-28-31c0-28,3-30,35-30c35,0,35,1,35,43c-1,38-4,44-42,67c-59,36-177,155-227,229c-55,81-104,186-133,287
		c-19,68-23,101-22,234c1,138,3,164,27,243c72,234,222,426,420,537l57,32v64v64h-35C1033,2410,1030,2408,1030,2380z M913,2225
		c1-5-6-11-15-13c-11-2-18,3-18,13C880,2242,910,2243,913,2225z"/>
	<path class="st0" d="M1110,2375c0-33,2-35,35-35s35,2,35,35s-2,35-35,35S1110,2408,1110,2375z"/>
	<path class="st0" d="M1188,2365c-2-25-1-45,1-45c3,0,20,5,38,12c28,10,33,17,33,45c0,31-2,33-34,33C1193,2410,1192,2409,1188,2365z
		"/>
	<path class="st0" d="M1270,2380c0-31,7-34,48-24c15,4,22,14,22,30c0,21-5,24-35,24C1273,2410,1270,2408,1270,2380z"/>
	<path class="st0" d="M1350,2384c0-20,4-25,16-20c9,3,24,6,34,6c13,0,18,7,17,20c-1,16-8,20-34,20C1354,2410,1350,2407,1350,2384z"
		/>
	<path class="st0" d="M1430,2390c0-16,7-20,30-20s30,4,30,20s-7,20-30,20S1430,2406,1430,2390z"/>
	<path class="st0" d="M1510,2390c0-16,7-20,30-20s30,4,30,20s-7,20-30,20S1510,2406,1510,2390z"/>
	<path class="st0" d="M1590,2390c0-11,3-20,8-20c4,0,17-3,30-6c19-5,22-2,22,20s-4,26-30,26C1597,2410,1590,2406,1590,2390z"/>
	<path class="st0" d="M1672,2383c2-22,9-29,31-31c24-3,27,0,27,27c0,28-3,31-31,31C1672,2410,1669,2407,1672,2383z"/>
	<path class="st0" d="M1750,2380c0-27,3-30,30-30s30,3,30,30s-3,30-30,30S1750,2407,1750,2380z"/>
	<path class="st0" d="M1830,2380c0-27,3-30,30-30s30,3,30,30s-3,30-30,30S1830,2407,1830,2380z"/>
	<path class="st0" d="M1910,2380c0-26,4-30,28-30c26,0,28,3,24,30c-3,24-9,30-28,30C1914,2410,1910,2405,1910,2380z"/>
	<path class="st0" d="M1990,2380c0-25,4-30,25-30s25,5,25,30s-4,30-25,30S1990,2405,1990,2380z"/>
	<path class="st0" d="M2070,2380c0-25,4-30,25-30s25,5,25,30s-4,30-25,30S2070,2405,2070,2380z"/>
	<path class="st0" d="M2150,2375c0-20,5-25,25-25s25,5,25,25s-5,25-25,25S2150,2395,2150,2375z"/>
	<path class="st0" d="M2230,2374c0-21,4-25,23-22c14,2,23,11,25,26c3,18-1,22-22,22S2230,2395,2230,2374z"/>
	<path class="st0" d="M2390,2380c0-13,7-20,20-20s20,7,20,20s-7,20-20,20S2390,2393,2390,2380z"/>
	<path class="st0" d="M2550,2380c0-13,7-20,20-20s20,7,20,20s-7,20-20,20S2550,2393,2550,2380z"/>
	<path class="st0" d="M848,2300c-3-16-1-30,4-30c4,0,8,14,8,30c0,17-2,30-4,30S850,2317,848,2300z"/>
	<path class="st0" d="M871,2303c-1-31,1-33,34-33c32,0,35,2,35,30c0,17-4,30-8,30c-5,0-8-10-8-22c1-16-5-24-21-26c-17-3-22,3-26,25
		C873,2334,873,2334,871,2303z"/>
	<path class="st0" d="M950,2300c0-28,3-30,35-30s35,2,35,30s-3,30-35,30S950,2328,950,2300z"/>
	<path class="st0" d="M1830,2316c8-8,25-17,38-21c18-5,22-2,22,14c0,18-6,21-37,21C1821,2330,1818,2328,1830,2316z"/>
	<path class="st0" d="M1990,2300c0-25,4-30,25-30s25,5,25,30s-4,30-25,30S1990,2325,1990,2300z"/>
	<path class="st0" d="M2150,2298c0-23,4-28,25-28s25,5,25,29c0,25-4,29-25,27C2155,2325,2150,2320,2150,2298z"/>
	<path class="st0" d="M2310,2300c0-14,7-20,23-20s23,6,23,20s-7,20-23,20S2310,2314,2310,2300z"/>
	<path class="st0" d="M2470,2300c0-13,7-20,20-20s20,7,20,20s-7,20-20,20S2470,2313,2470,2300z"/>
	<path class="st0" d="M2630,2300c0-15,5-20,18-18c9,2,17,10,17,18s-8,16-17,18C2635,2320,2630,2315,2630,2300z"/>
	<path class="st0" d="M1992,2238c2-6,14-18,26-26c21-14,22-13,22,12c0,21-5,26-26,26C1999,2250,1990,2245,1992,2238z"/>
	<path class="st0" d="M2070,2220c0-25,4-30,25-30s25,5,25,30s-4,30-25,30S2070,2245,2070,2220z"/>
	<path class="st0" d="M2230,2226c0-21,5-26,26-26s25,4,22,23c-2,14-11,23-25,25C2234,2251,2230,2247,2230,2226z"/>
	<path class="st0" d="M2390,2220c0-13,7-20,20-20s20,7,20,20s-7,20-20,20S2390,2233,2390,2220z"/>
	<path class="st0" d="M2550,2220c0-13,7-20,20-20s20,7,20,20s-7,20-20,20S2550,2233,2550,2220z"/>
	<path class="st0" d="M2150,2145c0-20,5-25,25-25s25,5,25,25s-5,25-25,25S2150,2165,2150,2145z"/>
	<path class="st0" d="M2310,2146c0-21,5-26,23-26c32,0,31,43-1,48C2314,2171,2310,2166,2310,2146z"/>
	<path class="st0" d="M2470,2140c0-13,7-20,20-20s20,7,20,20s-7,20-20,20S2470,2153,2470,2140z"/>
	<path class="st0" d="M2630,2139c0-14,5-19,17-17c26,5,29,38,4,38C2636,2160,2630,2154,2630,2139z"/>
	<path class="st0" d="M2790,2146c0-9,7-16,16-16c17,0,14,22-4,28C2795,2160,2790,2155,2790,2146z"/>
	<path class="st0" d="M2175,2070c10-11,20-20,22-20c1,0,3,9,3,20c0,14-7,20-22,20C2158,2090,2157,2089,2175,2070z"/>
	<path class="st0" d="M2230,2065c0-20,5-25,25-25s25,5,25,25s-5,25-25,25S2230,2085,2230,2065z"/>
	<path class="st0" d="M2390,2063c0-16,6-23,20-23s20,7,20,23s-6,23-20,23S2390,2079,2390,2063z"/>
	<path class="st0" d="M2550,2059c0-25,33-22,38,4c2,12-3,17-17,17C2556,2080,2550,2074,2550,2059z"/>
	<path class="st0" d="M2310,1985c0-31,35-35,43-6c6,24,0,31-25,31C2315,2010,2310,2003,2310,1985z"/>
	<path class="st0" d="M2470,1980c0-13,7-20,20-20s20,7,20,20s-7,20-20,20S2470,1993,2470,1980z"/>
	<path class="st0" d="M2630,1985c0-8,9-15,20-15s20,7,20,15s-9,15-20,15S2630,1993,2630,1985z"/>
	<path class="st0" d="M2790,1985c0-8,7-15,15-15s15,7,15,15s-7,15-15,15S2790,1993,2790,1985z"/>
	<path class="st0" d="M2310,1905c0-18,5-25,20-25s20,7,20,25s-5,25-20,25S2310,1923,2310,1905z"/>
	<path class="st0" d="M2390,1905c0-18,5-25,20-25s20,7,20,25s-5,25-20,25S2390,1923,2390,1905z"/>
	<path class="st0" d="M2550,1905c0-8,9-15,20-15s20,7,20,15s-9,15-20,15S2550,1913,2550,1905z"/>
	<path class="st0" d="M2332,1825c6-14,15-25,20-25c4,0,8,11,8,25c0,18-5,25-20,25C2323,1850,2322,1847,2332,1825z"/>
	<path class="st0" d="M2470,1830c0-13,7-20,20-20s20,7,20,20s-7,20-20,20S2470,1843,2470,1830z"/>
	<path class="st0" d="M2630,1825c0-8,9-15,20-15s20,7,20,15s-9,15-20,15S2630,1833,2630,1825z"/>
	<path class="st0" d="M2790,1825c0-8,7-15,15-15s15,7,15,15s-7,15-15,15S2790,1833,2790,1825z"/>
	<path class="st0" d="M2390,1745c0-18,5-25,20-25s20,7,20,25s-5,25-20,25S2390,1763,2390,1745z"/>
	<path class="st0" d="M2550,1751c0-15,6-21,21-21c25,0,22,33-4,38C2555,1770,2550,1765,2550,1751z"/>
	<path class="st0" d="M2470,1670c0-13,7-20,20-20s20,7,20,20s-7,20-20,20S2470,1683,2470,1670z"/>
	<path class="st0" d="M2637,1684c-14-15-6-34,14-34c14,0,19,5,17,17C2665,1685,2648,1694,2637,1684z"/>
	<path class="st0" d="M2790,1665c0-8,7-15,15-15s15,7,15,15s-7,15-15,15S2790,1673,2790,1665z"/>
	<path class="st0" d="M2400,1590c0-11,7-20,15-20s15,9,15,20s-7,20-15,20S2400,1601,2400,1590z"/>
	<path class="st0" d="M2550,1590c0-13,7-20,20-20s20,7,20,20s-7,20-20,20S2550,1603,2550,1590z"/>
	<path class="st0" d="M2470,1510c0-13,7-20,20-20s20,7,20,20s-7,20-20,20S2470,1523,2470,1510z"/>
	<path class="st0" d="M2630,1510c0-15,5-20,18-18c9,2,17,10,17,18s-8,16-17,18C2635,1530,2630,1525,2630,1510z"/>
	<path class="st0" d="M2792,1509c2-6,8-10,13-10s11,4,13,10s-4,11-13,11S2790,1515,2792,1509z"/>
	<path class="st0" d="M2950,1510c0-5,7-10,15-10s15,5,15,10c0,6-7,10-15,10S2950,1516,2950,1510z"/>
	<path class="st0" d="M2410,1430c0-11,5-20,10-20c6,0,10,9,10,20s-4,20-10,20C2415,1450,2410,1441,2410,1430z"/>
	<path class="st0" d="M2470,1350c0-13,7-20,20-20s20,7,20,20s-7,20-20,20S2470,1363,2470,1350z"/>
	<path class="st0" d="M2632,1353c2-10,10-18,18-18s16,8,18,18c2,12-3,17-18,17S2630,1365,2632,1353z"/>
	<path class="st0" d="M2790,1355c0-8,7-15,15-15s15,7,15,15s-7,15-15,15S2790,1363,2790,1355z"/>
	<path class="st0" d="M2950,1350c0-5,7-10,15-10s15,5,15,10c0,6-7,10-15,10S2950,1356,2950,1350z"/>
	<path class="st0" d="M2390,1270c0-13,7-20,20-20s20,7,20,20s-7,20-20,20S2390,1283,2390,1270z"/>
	<path class="st0" d="M2550,1269c0-14,5-19,17-17c26,5,29,38,4,38C2556,1290,2550,1284,2550,1269z"/>
	<path class="st0" d="M2470,1190c0-13,7-20,20-20s20,7,20,20s-7,20-20,20S2470,1203,2470,1190z"/>
	<path class="st0" d="M2630,1195c0-8,9-15,20-15s20,7,20,15s-9,15-20,15S2630,1203,2630,1195z"/>
	<path class="st0" d="M2790,1195c0-8,7-15,15-15s15,7,15,15s-7,15-15,15S2790,1203,2790,1195z"/>
	<path class="st0" d="M2390,1115c0-18,5-25,20-25s20,7,20,25s-5,25-20,25S2390,1133,2390,1115z"/>
	<path class="st0" d="M2550,1115c0-8,9-15,20-15s20,7,20,15s-9,15-20,15S2550,1123,2550,1115z"/>
	<path class="st0" d="M2310,1035c0-18,5-25,18-25c25,0,31,7,25,31C2345,1070,2310,1066,2310,1035z"/>
	<path class="st0" d="M2470,1035c0-18,5-25,20-25s20,7,20,25s-5,25-20,25S2470,1053,2470,1035z"/>
	<path class="st0" d="M2630,1035c0-8,9-15,20-15s20,7,20,15s-9,15-20,15S2630,1043,2630,1035z"/>
	<path class="st0" d="M2790,1035c0-8,7-15,15-15s15,7,15,15s-7,15-15,15S2790,1043,2790,1035z"/>
	<path class="st0" d="M2252,960c-16-27-15-30,8-30c15,0,20,7,20,25C2280,985,2269,987,2252,960z"/>
	<path class="st0" d="M2390,955c0-18,5-25,20-25s20,7,20,25s-5,25-20,25S2390,973,2390,955z"/>
	<path class="st0" d="M2550,961c0-15,6-21,21-21c25,0,22,33-4,38C2555,980,2550,975,2550,961z"/>
	<path class="st0" d="M2310,874c0-20,4-25,22-22c32,5,33,48,1,48C2315,900,2310,895,2310,874z"/>
	<path class="st0" d="M2470,880c0-13,7-20,20-20s20,7,20,20s-7,20-20,20S2470,893,2470,880z"/>
	<path class="st0" d="M2630,875c0-8,9-15,20-15s20,7,20,15s-9,15-20,15S2630,883,2630,875z"/>
	<path class="st0" d="M2790,875c0-8,7-15,15-15s15,7,15,15s-7,15-15,15S2790,883,2790,875z"/>
	<path class="st0" d="M2180,865c-10-12-10-15,4-15c9,0,16,7,16,15s-2,15-4,15S2187,873,2180,865z"/>
	<path class="st0" d="M2150,795c0-20,5-25,25-25s25,5,25,25s-5,25-25,25S2150,815,2150,795z"/>
	<path class="st0" d="M2230,795c0-20,5-25,25-25s25,5,25,25s-5,25-25,25S2230,815,2230,795z"/>
	<path class="st0" d="M2390,800c0-13,7-20,20-20s20,7,20,20s-7,20-20,20S2390,813,2390,800z"/>
	<path class="st0" d="M2550,800c0-13,7-20,20-20s20,7,20,20s-7,20-20,20S2550,813,2550,800z"/>
	<path class="st0" d="M2100,785c-10-12-10-15,4-15c9,0,16,7,16,15s-2,15-4,15S2107,793,2100,785z"/>
	<path class="st0" d="M2150,719c0-24,4-29,25-29c20,0,25,5,25,24c0,17-7,25-25,28C2153,747,2150,744,2150,719z"/>
	<path class="st0" d="M2310,720c0-14,7-20,23-20s23,6,23,20s-7,20-23,20S2310,734,2310,720z"/>
	<path class="st0" d="M2470,720c0-13,7-20,20-20s20,7,20,20s-7,20-20,20S2470,733,2470,720z"/>
	<path class="st0" d="M2630,720c0-15,5-20,18-18c9,2,17,10,17,18s-8,16-17,18C2635,740,2630,735,2630,720z"/>
	<path class="st0" d="M2008,716c-25-18-22-26,7-26c18,0,25,5,25,20C2040,733,2032,735,2008,716z"/>
	<path class="st0" d="M1030,645c0-33,2-35,35-35c28,0,35,4,35,20c0,11-12,26-30,35C1031,685,1030,685,1030,645z"/>
	<path class="st0" d="M1923,663c-7-2-13-16-13-29c0-20,5-24,28-24s27,4,27,30C1965,670,1953,676,1923,663z"/>
	<path class="st0" d="M1990,640c0-25,4-30,25-30s25,5,25,30s-4,30-25,30S1990,665,1990,640z"/>
	<path class="st0" d="M2070,640c0-25,4-30,25-30s25,5,25,30s-4,30-25,30S2070,665,2070,640z"/>
	<path class="st0" d="M2230,643c0-18,5-23,26-23c20,0,25,4,22,22C2273,674,2230,675,2230,643z"/>
	<path class="st0" d="M2310,640c0-13,7-20,20-20s20,7,20,20s-7,20-20,20S2310,653,2310,640z"/>
	<path class="st0" d="M2390,640c0-13,7-20,20-20s20,7,20,20s-7,20-20,20S2390,653,2390,640z"/>
	<path class="st0" d="M2550,640c0-13,7-20,20-20s20,7,20,20s-7,20-20,20S2550,653,2550,640z"/>
	<path class="st0" d="M1110,626c0-11,9-16,26-16c14,0,23-4,19-10c-3-5-15-10-26-10c-14,0-19-7-19-30c0-28,3-30,35-30
		c35,0,35,0,35,44c0,33-4,45-17,49c-10,2-26,8-35,12C1115,640,1110,637,1110,626z"/>
	<path class="st0" d="M1845,625l-30-13l38-1c27-1,37,3,37,14C1890,643,1884,643,1845,625z"/>
	<path class="st0" d="M1190,569c0-38,1-39,35-39c32,0,35,2,35,30c0,17-1,30-3,30c-1,0-17,4-35,9l-32,10V569z"/>
	<path class="st0" d="M872,568c-2-37-1-38,33-38c33,0,35,2,35,35c0,19-4,35-10,35c-5,0-8-12-7-27c2-22-3-29-20-31c-18-3-22,3-26,30
		l-4,33L872,568z"/>
	<path class="st0" d="M983,593c-29-4-33-8-33-34c0-27,3-29,35-29c33,0,35,2,35,35c0,19-1,34-2,33C1016,598,1000,595,983,593z"/>
	<path class="st0" d="M1063,593c-29-4-33-8-33-34c0-27,3-29,35-29c33,0,35,2,35,35c0,19-1,34-2,33C1096,598,1080,595,1063,593z"/>
	<path class="st0" d="M1693,579c-24-7-30-13-26-29c4-14,14-20,34-20c26,0,29,4,29,30c0,17-1,30-2,29C1726,589,1711,584,1693,579z"/>
	<path class="st0" d="M1830,560c0-27,3-30,30-30s30,3,30,30s-3,30-30,30S1830,587,1830,560z"/>
	<path class="st0" d="M1990,560c0-25,4-30,25-30s25,5,25,30s-4,30-25,30S1990,585,1990,560z"/>
	<path class="st0" d="M2150,562c0-24,4-28,23-27c16,1,23,9,25,28c3,23,0,27-22,27S2150,585,2150,562z"/>
	<path class="st0" d="M1270,555c0-22,4-25,35-25c28,0,35,4,35,19c0,11-9,21-22,25C1279,584,1270,581,1270,555z"/>
	<path class="st0" d="M2310,560c0-14,7-20,23-20s23,6,23,20s-7,20-23,20S2310,574,2310,560z"/>
	<path class="st0" d="M2470,560c0-13,7-20,20-20s20,7,20,20s-7,20-20,20S2470,573,2470,560z"/>
	<path class="st0" d="M2630,560c0-24,25-27,34-4s8,24-14,24C2637,580,2630,573,2630,560z"/>
	<path class="st0" d="M1350,551c0-17,6-21,35-21c24,0,35,5,35,15c0,8-9,15-19,15c-11,0-26,3-35,6C1354,570,1350,566,1350,551z"/>
	<path class="st0" d="M1430,545c0-12,8-16,33-13c17,2,32,8,32,13c0,6-15,11-32,13C1438,561,1430,557,1430,545z"/>
	<path class="st0" d="M1510,545c0-10,10-15,29-15c16,0,31,6,35,15c4,12-3,15-29,15C1521,560,1510,555,1510,545z"/>
	<path class="st0" d="M922,513c-10-4-10-8-2-19c15-17,4-34-22-34c-16,0-19,5-16,25c3,14,1,25-3,25c-5,0-9-13-9-30c0-28,3-30,35-30
		c33,0,35,2,35,35c0,19-1,35-2,34C936,519,929,516,922,513z"/>
	<path class="st0" d="M950,483c0-31,2-33,35-33s35,2,35,33c0,32-2,33-35,33C952,515,950,513,950,483z M991,477c-13-13-26-3-16,12
		c3,6,11,8,17,5C998,490,998,484,991,477z"/>
	<path class="st0" d="M1030,483c0-31,2-33,35-33s35,2,35,33s-2,33-35,33S1030,514,1030,483z"/>
	<path class="st0" d="M1110,485c0-33,2-35,35-35s35,2,35,35s-2,35-35,35S1110,518,1110,485z"/>
	<path class="st0" d="M1190,483c0-31,2-33,35-33s35,2,35,33c0,32-2,33-35,33C1192,515,1190,513,1190,483z"/>
	<path class="st0" d="M1270,483c0-31,2-33,34-33s34,2,31,32c-2,28-6,31-34,32C1272,515,1270,512,1270,483z"/>
	<path class="st0" d="M1350,483c0-30,3-33,30-33s30,3,30,33c0,29-3,32-30,32S1350,512,1350,483z"/>
	<path class="st0" d="M1590,483c0-30,3-33,30-33s30,3,30,33c0,29-3,32-30,32S1590,512,1590,483z"/>
	<path class="st0" d="M1430,480c0-27,3-30,30-30s30,3,30,30s-3,30-30,30S1430,507,1430,480z"/>
	<path class="st0" d="M1510,480c0-27,3-30,30-30s30,3,30,30s-3,30-30,30S1510,507,1510,480z"/>
	<path class="st0" d="M1670,480c0-27,3-30,30-30s30,3,30,30s-3,30-30,30S1670,507,1670,480z"/>
	<path class="st0" d="M1750,480c0-27,3-30,30-30s30,3,30,30s-3,30-30,30S1750,507,1750,480z"/>
	<path class="st0" d="M1830,480c0-27,3-30,30-30s30,3,30,30s-3,30-30,30S1830,507,1830,480z"/>
	<path class="st0" d="M1910,480c0-25,4-30,24-30c19,0,25,6,28,30c4,27,2,30-24,30C1914,510,1910,506,1910,480z"/>
	<path class="st0" d="M1990,483c0-23,5-28,25-29c21-2,25,2,25,27c0,24-4,29-25,29S1990,505,1990,483z"/>
	<path class="st0" d="M2070,483c0-23,5-28,25-29c21-2,25,2,25,27c0,24-4,29-25,29S2070,505,2070,483z"/>
	<path class="st0" d="M2230,485c0-20,5-25,25-25s25,5,25,25s-5,25-25,25S2230,505,2230,485z"/>
	<path class="st0" d="M2390,480c0-13,7-20,20-20s20,7,20,20s-7,20-20,20S2390,493,2390,480z"/>
	<path class="st0" d="M2550,480c0-13,7-20,20-20s20,7,20,20s-7,20-20,20S2550,493,2550,480z"/>
	<path class="st0" d="M870,406c0-34,2-36,35-36s35,2,35,35c0,19-4,35-9,35c-15,0-23-18-10-22c17-6-2-38-23-38c-16,0-19,5-16,25
		c3,14,1,28-3,31C874,439,870,425,870,406z"/>
	<path class="st0" d="M950,403c0-31,2-33,35-33s35,2,35,33s-2,33-35,33S950,434,950,403z"/>
	<path class="st0" d="M1030,405c0-33,2-35,35-35s35,2,35,35s-2,35-35,35S1030,438,1030,405z"/>
	<path class="st0" d="M1190,405c0-33,2-35,35-35s35,2,35,35s-2,35-35,35S1190,438,1190,405z"/>
	<path class="st0" d="M1270,404c0-32,2-34,34-34s34,2,31,32c-2,29-6,33-34,34C1272,438,1270,435,1270,404z"/>
	<path class="st0" d="M1350,405c0-33,2-35,35-35s35,2,35,35s-2,35-35,35S1350,438,1350,405z"/>
	<path class="st0" d="M1510,403c0-30,3-33,30-33s30,3,30,33c0,31-3,34-30,34S1510,434,1510,403z"/>
	<path class="st0" d="M1698,433c-23-4-28-9-28-34c0-26,3-29,30-29c28,0,30,3,30,35c0,19-1,34-2,34C1726,438,1713,435,1698,433z"/>
	<path class="st0" d="M1590,400c0-27,3-30,30-30s30,3,30,30s-3,30-30,30S1590,427,1590,400z"/>
	<path class="st0" d="M1830,400c0-27,3-30,30-30s30,3,30,30s-3,30-30,30S1830,427,1830,400z"/>
	<path class="st0" d="M1990,406c0-17,7-25,25-28c22-5,25-2,25,23c0,24-4,29-25,29C1995,430,1990,425,1990,406z"/>
	<path class="st0" d="M2150,405c0-20,5-25,25-25s25,5,25,25s-5,25-25,25S2150,425,2150,405z"/>
	<path class="st0" d="M2310,405c0-31,35-35,43-6c6,24,0,31-25,31C2315,430,2310,423,2310,405z"/>
	<path class="st0" d="M2470,400c0-13,7-20,20-20s20,7,20,20s-7,20-20,20S2470,413,2470,400z"/>
	<path class="st0" d="M810,353c14-3,31-10,38-15c9-8,12-6,12,6s-9,16-37,15S792,356,810,353z"/>
	<path class="st0" d="M870,325c0-33,2-35,35-35s35,2,35,35s-2,35-35,35S870,358,870,325z M925,325c0-13-8-21-22-23c-19-3-23,1-23,23
		s4,26,23,23C917,346,925,338,925,325z"/>
	<path class="st0" d="M950,325c0-33,2-35,35-35s35,2,35,35s-2,35-35,35S950,358,950,325z M992,325c0-5-5-11-11-13s-11,4-11,13
		s5,15,11,13S992,330,992,325z"/>
	<path class="st0" d="M1030,325c0-33,2-35,35-35s35,2,35,35s-2,35-35,35S1030,358,1030,325z"/>
	<path class="st0" d="M1110,325c0-33,2-35,35-35s35,2,35,35s-2,35-35,35S1110,358,1110,325z"/>
	<path class="st0" d="M1190,325c0-33,2-35,35-35s35,2,35,35s-2,35-35,35S1190,358,1190,325z"/>
	<path class="st0" d="M1270,325c0-33,2-35,34-35s34,2,33,35s-3,35-34,35S1270,358,1270,325z"/>
	<path class="st0" d="M1350,325c0-32,2-35,30-35s30,3,30,35s-2,35-30,35S1350,357,1350,325z"/>
	<path class="st0" d="M1430,325c0-32,2-35,30-35s30,3,30,35s-2,35-30,35S1430,357,1430,325z"/>
	<path class="st0" d="M1510,325c0-32,2-35,30-35s30,3,30,35s-2,35-30,35S1510,357,1510,325z"/>
	<path class="st0" d="M1590,323c0-30,3-33,30-33s30,3,30,33c0,31-3,34-30,34S1590,354,1590,323z"/>
	<path class="st0" d="M1670,323c0-30,3-33,30-33s30,3,30,34c0,30-2,33-30,32C1673,355,1670,352,1670,323z"/>
	<path class="st0" d="M1750,325c0-32,2-35,30-35s30,3,30,35s-2,35-30,35S1750,357,1750,325z"/>
	<path class="st0" d="M1830,322c0-24,4-28,28-27c21,1,28,7,30,28c3,24,0,27-27,27S1830,347,1830,322z"/>
	<path class="st0" d="M1910,322c0-24,4-27,27-26c21,0,27,6,27,27c1,23-2,27-26,27S1910,346,1910,322z"/>
	<path class="st0" d="M1990,325c0-20,5-25,25-25s25,5,25,25s-5,25-25,25S1990,345,1990,325z"/>
	<path class="st0" d="M2070,325c0-20,5-25,25-25s25,5,25,25s-5,25-25,25S2070,345,2070,325z"/>
	<path class="st0" d="M2230,325c0-20,5-25,25-25s25,5,25,25s-5,25-25,25S2230,345,2230,325z"/>
	<path class="st0" d="M2390,324c0-33,33-30,38,4c3,17-2,22-17,22C2395,350,2390,344,2390,324z"/>
	<path class="st0" d="M870,245c0-33,2-35,35-35s35,2,35,35s-2,35-35,35S870,278,870,245z M923,258c7-21-4-38-24-38c-14,0-19,7-19,25
		s5,25,19,25C910,270,920,264,923,258z"/>
	<path class="st0" d="M950,245c0-33,2-35,35-35s35,2,35,35s-2,35-35,35S950,278,950,245z M992,245c0-5-5-11-11-13s-11,4-11,13
		s5,15,11,13S992,250,992,245z"/>
	<path class="st0" d="M1030,245c0-33,2-35,35-35s35,2,35,35s-2,35-35,35S1030,278,1030,245z"/>
	<path class="st0" d="M1110,245c0-33,2-35,35-35s35,2,35,35s-2,35-35,35S1110,278,1110,245z"/>
	<path class="st0" d="M1190,245c0-33,2-35,35-35s35,2,35,35s-2,35-35,35S1190,278,1190,245z"/>
	<path class="st0" d="M1350,245c0-32,2-35,30-35s30,3,30,35s-2,35-30,35S1350,277,1350,245z"/>
	<path class="st0" d="M1430,245c0-32,2-35,30-35s30,3,30,35s-2,35-30,35S1430,277,1430,245z"/>
	<path class="st0" d="M1510,245c0-32,2-35,30-35s30,3,30,35s-2,35-30,35S1510,277,1510,245z"/>
	<path class="st0" d="M1670,245c0-32,2-35,30-35s30,3,30,35s-2,35-30,35S1670,277,1670,245z"/>
	<path class="st0" d="M1830,248c0-24,4-28,30-28c25,0,30,4,30,24c0,19-6,25-30,28C1833,276,1830,274,1830,248z"/>
	<path class="st0" d="M1990,245c0-20,5-25,25-25s25,5,25,25s-5,25-25,25S1990,265,1990,245z"/>
	<path class="st0" d="M2150,245c0-20,5-25,25-25s25,5,25,25s-5,25-25,25S2150,265,2150,245z"/>
	<path class="st0" d="M2310,250c0-20,1-20,25-4c14,9,25,18,25,20s-11,4-25,4C2317,270,2310,265,2310,250z"/>
	<path class="st0" d="M850,229c0-7-12-10-30-7c-16,3-30,1-30-4c0-4,16-8,35-8c24,0,35,5,35,15c0,8-2,15-5,15S850,235,850,229z"/>
	<path class="st0" d="M950,165c0-33,2-35,35-35s35,2,35,35s-2,35-35,35S950,198,950,165z M992,165c0-5-5-11-11-13s-11,4-11,13
		s5,15,11,13S992,170,992,165z"/>
	<path class="st0" d="M1030,165c0-33,2-35,35-35s35,2,35,35s-2,35-35,35S1030,198,1030,165z"/>
	<path class="st0" d="M1110,165c0-33,2-35,35-35s35,2,35,35s-2,35-35,35S1110,198,1110,165z"/>
	<path class="st0" d="M1190,165c0-33,2-35,35-35s35,2,35,35s-2,35-35,35S1190,198,1190,165z"/>
	<path class="st0" d="M1270,165c0-33,2-35,33-35s33,2,34,35s-1,35-33,35S1270,198,1270,165z"/>
	<path class="st0" d="M1350,165c0-32,2-35,30-35s30,3,30,35s-2,35-30,35S1350,197,1350,165z"/>
	<path class="st0" d="M1430,165c0-32,2-35,30-35s30,3,30,35s-2,35-30,35S1430,197,1430,165z"/>
	<path class="st0" d="M1510,167c0-31,3-34,30-34s30,3,30,34c0,30-3,33-30,33S1510,197,1510,167z"/>
	<path class="st0" d="M1590,168c0-30,3-33,30-34c28-1,30,2,30,32c0,31-3,34-30,34S1590,197,1590,168z"/>
	<path class="st0" d="M1670,168c0-30,3-33,30-33s30,3,30,33c0,29-3,32-30,32S1670,197,1670,168z"/>
	<path class="st0" d="M1750,166c0-32,2-35,28-33c23,2,27,7,30,35c3,30,1,32-27,32C1752,200,1750,197,1750,166z"/>
	<path class="st0" d="M1830,169c0-26,3-29,31-29c27,0,30,3,27,27c-2,22-9,28-30,30C1833,199,1830,195,1830,169z"/>
	<path class="st0" d="M1910,171c0-27,3-31,28-31c24,0,28,4,27,28c-1,21-7,28-28,30C1913,201,1910,198,1910,171z"/>
	<path class="st0" d="M1990,165c0-20,5-25,25-25s25,5,25,25s-5,25-25,25S1990,185,1990,165z"/>
	<path class="st0" d="M2070,165c0-20,5-25,25-25s25,5,25,25s-5,25-25,25S2070,185,2070,165z"/>
	<path class="st0" d="M2150,165c0-23,2-24,25-13c14,6,25,17,25,25c0,7-11,13-25,13C2155,190,2150,185,2150,165z"/>
	<path class="st0" d="M1030,91c0-21,6-30,23-35c41-11,47-7,47,29c0,33-2,35-35,35C1033,120,1030,117,1030,91z"/>
	<path class="st0" d="M1190,85c0-33,2-35,35-35s35,2,35,35s-2,35-35,35S1190,118,1190,85z"/>
	<path class="st0" d="M1270,84c0-34,1-35,31-32c28,3,32,7,34,36c3,30,1,32-31,32S1270,118,1270,84z"/>
	<path class="st0" d="M1350,85c0-33,2-35,35-35s35,2,35,35s-2,35-35,35S1350,118,1350,85z"/>
	<path class="st0" d="M1510,86c0-30,2-33,30-32c27,1,30,4,30,34c0,29-3,32-30,32S1510,117,1510,86z"/>
	<path class="st0" d="M1590,90c0-27,3-30,30-30s30,3,30,30s-3,30-30,30S1590,117,1590,90z"/>
	<path class="st0" d="M1670,90c0-27,3-30,30-30s30,3,30,30s-3,30-30,30S1670,117,1670,90z"/>
	<path class="st0" d="M1830,90c0-27,3-30,30-30s30,3,30,30s-3,30-30,30S1830,117,1830,90z"/>
	<path class="st0" d="M1990,93c0-19,3-21,23-14c32,12,33,36,2,36C1996,115,1990,110,1990,93z"/>
	<path class="st0" d="M1114,41c10-15,66-19,66-4c0,8-13,13-36,13C1125,50,1111,46,1114,41z"/>
	<path class="st0" d="M1190,30c0-5,6-10,13-10c6,0,22-3,35-6c16-5,22-2,22,10s-9,16-35,16C1206,40,1190,36,1190,30z"/>
	<path class="st0" d="M1270,26c0-17,52-28,62-13c14,22,8,27-27,27C1282,40,1270,35,1270,26z"/>
	<path class="st0" d="M1350,20c0-16,7-20,30-20s30,4,30,20s-7,20-30,20S1350,36,1350,20z"/>
	<path class="st0" d="M1430,20c0-16,7-20,30-20s30,4,30,20s-7,20-30,20S1430,36,1430,20z"/>
	<path class="st0" d="M1510,20c0-16,7-20,30-20s30,4,30,20s-7,20-30,20S1510,36,1510,20z"/>
	<path class="st0" d="M1590,20c0-16,7-20,30-20s30,4,30,20s-7,20-30,20S1590,36,1590,20z"/>
	<path class="st0" d="M1670,19c0-15,4-19,16-15c9,3,22,6,30,6s14,7,14,15c0,10-10,15-30,15C1676,40,1670,36,1670,19z"/>
	<path class="st0" d="M1750,24c0-12,6-15,23-10c12,3,25,6,30,6c4,0,7,5,7,10c0,6-13,10-30,10C1759,40,1750,35,1750,24z"/>
</g>
</svg>
